<svg width="21" height="21" fill="none" xmlns="http://www.w3.org/2000/svg"><g clip-path="url(#clip0_1_10448)" stroke="#fff" stroke-width=".844" stroke-linecap="round" stroke-linejoin="round"><path d="M19.057 5.933a2.347 2.347 0 00-1.637-1.688c-1.452-.354-7.26-.354-7.26-.354s-5.807 0-7.259.388a2.347 2.347 0 00-1.637 1.688 24.479 24.479 0 00-.389 4.465 24.51 24.51 0 00.389 4.5 2.347 2.347 0 001.637 1.62c1.452.388 7.26.388 7.26.388s5.807 0 7.259-.388a2.346 2.346 0 001.637-1.688c.264-1.462.394-2.946.389-4.432.01-1.508-.12-3.014-.389-4.499v0z"/><path d="M8.262 13.194l4.853-2.76-4.853-2.76v5.52z"/></g><defs><clipPath id="clip0_1_10448"><path fill="#fff" transform="translate(.031 .515)" d="M0 0h20.258v20.258H0z"/></clipPath></defs></svg>